# xmcd CD database file generated by Grip 2.91
# 
# Track frame offsets:
#       150
#       21052
#       37564
#       53051
#       71813
#       88735
#       110787
#       129129
#       148161
#       165593
#       184005
#       200937
# 
# Disc length: 3001 seconds
# 
# Revision: 3
# Processed by: cddbd v1.4b41PL1 Copyright (c) Steve Scherf et al.
# Submitted via: Grip 2.91
# 
DISCID=a60bb70c
DTITLE=Garbage - Version 2.0 - Australian Import
DYEAR=1900
DGENRE=
TTITLE0=Temptation Waits
TTITLE1=I Think I'm Paranoid
TTITLE2=When I grow up
TTITLE3=Medication
TTITLE4=Special
TTITLE5=Hammering in my head
TTITLE6=Push it
TTITLE7=The trick is to keep breathing
TTITLE8=Dumb
TTITLE9=Sleep together
TTITLE10=Wicked ways
TTITLE11=You look so fine
EXTD=Australian Import\nDisc two is a VCD of music videos from the Debut Album
EXTT0=
EXTT1=
EXTT2=
EXTT3=
EXTT4=
EXTT5=
EXTT6=
EXTT7=
EXTT8=
EXTT9=
EXTT10=
EXTT11=
PLAYORDER=
